<?xml version="1.0" encoding="utf-8" standalone="no"?>
<!DOCTYPE svg PUBLIC "-//W3C//DTD SVG 1.1//EN"
  "http://www.w3.org/Graphics/SVG/1.1/DTD/svg11.dtd">
<!-- Created with matplotlib (https://matplotlib.org/) -->
<svg height="432pt" version="1.1" viewBox="0 0 864 432" width="864pt" xmlns="http://www.w3.org/2000/svg" xmlns:xlink="http://www.w3.org/1999/xlink">
 <defs>
  <style type="text/css">
*{stroke-linecap:butt;stroke-linejoin:round;}
  </style>
 </defs>
 <g id="figure_1">
  <g id="patch_1">
   <path d="M 0 432 
L 864 432 
L 864 0 
L 0 0 
z
" style="fill:none;"/>
  </g>
  <g id="axes_1">
   <g id="patch_2">
    <path d="M 55.55 339.2 
L 842.325 339.2 
L 842.325 30.8 
L 55.55 30.8 
z
" style="fill:none;"/>
   </g>
   <g id="matplotlib.axis_1">
    <g id="xtick_1">
     <g id="line2d_1">
      <path clip-path="url(#pb447c8bdda)" d="M 55.55 339.2 
L 55.55 30.8 
" style="fill:none;stroke:#ffffff;stroke-linecap:square;stroke-width:0.8;"/>
     </g>
     <g id="line2d_2">
      <defs>
       <path d="M 0 0 
L 0 3.5 
" id="m566976d4f7" style="stroke:#555555;stroke-width:0.8;"/>
      </defs>
      <g>
       <use style="fill:#555555;stroke:#555555;stroke-width:0.8;" x="55.55" xlink:href="#m566976d4f7" y="339.2"/>
      </g>
     </g>
    </g>
    <g id="xtick_2">
     <g id="line2d_3">
      <path clip-path="url(#pb447c8bdda)" d="M 80.136719 339.2 
L 80.136719 30.8 
" style="fill:none;stroke:#ffffff;stroke-linecap:square;stroke-width:0.8;"/>
     </g>
     <g id="line2d_4">
      <g>
       <use style="fill:#555555;stroke:#555555;stroke-width:0.8;" x="80.136719" xlink:href="#m566976d4f7" y="339.2"/>
      </g>
     </g>
     <g id="text_1">
      <!--  -->
      <g style="fill:#555555;" transform="translate(80.136719 355.318125)scale(0.12 -0.12)"/>
      <!--  -->
      <g style="fill:#555555;" transform="translate(80.136719 368.7555)scale(0.12 -0.12)"/>
      <!-- Jan -->
      <defs>
       <path d="M 9.8125 72.90625 
L 19.671875 72.90625 
L 19.671875 5.078125 
Q 19.671875 -8.109375 14.671875 -14.0625 
Q 9.671875 -20.015625 -1.421875 -20.015625 
L -5.171875 -20.015625 
L -5.171875 -11.71875 
L -2.09375 -11.71875 
Q 4.4375 -11.71875 7.125 -8.046875 
Q 9.8125 -4.390625 9.8125 5.078125 
z
" id="DejaVuSans-74"/>
       <path d="M 34.28125 27.484375 
Q 23.390625 27.484375 19.1875 25 
Q 14.984375 22.515625 14.984375 16.5 
Q 14.984375 11.71875 18.140625 8.90625 
Q 21.296875 6.109375 26.703125 6.109375 
Q 34.1875 6.109375 38.703125 11.40625 
Q 43.21875 16.703125 43.21875 25.484375 
L 43.21875 27.484375 
z
M 52.203125 31.203125 
L 52.203125 0 
L 43.21875 0 
L 43.21875 8.296875 
Q 40.140625 3.328125 35.546875 0.953125 
Q 30.953125 -1.421875 24.3125 -1.421875 
Q 15.921875 -1.421875 10.953125 3.296875 
Q 6 8.015625 6 15.921875 
Q 6 25.140625 12.171875 29.828125 
Q 18.359375 34.515625 30.609375 34.515625 
L 43.21875 34.515625 
L 43.21875 35.40625 
Q 43.21875 41.609375 39.140625 45 
Q 35.0625 48.390625 27.6875 48.390625 
Q 23 48.390625 18.546875 47.265625 
Q 14.109375 46.140625 10.015625 43.890625 
L 10.015625 52.203125 
Q 14.9375 54.109375 19.578125 55.046875 
Q 24.21875 56 28.609375 56 
Q 40.484375 56 46.34375 49.84375 
Q 52.203125 43.703125 52.203125 31.203125 
z
" id="DejaVuSans-97"/>
       <path d="M 54.890625 33.015625 
L 54.890625 0 
L 45.90625 0 
L 45.90625 32.71875 
Q 45.90625 40.484375 42.875 44.328125 
Q 39.84375 48.1875 33.796875 48.1875 
Q 26.515625 48.1875 22.3125 43.546875 
Q 18.109375 38.921875 18.109375 30.90625 
L 18.109375 0 
L 9.078125 0 
L 9.078125 54.6875 
L 18.109375 54.6875 
L 18.109375 46.1875 
Q 21.34375 51.125 25.703125 53.5625 
Q 30.078125 56 35.796875 56 
Q 45.21875 56 50.046875 50.171875 
Q 54.890625 44.34375 54.890625 33.015625 
z
" id="DejaVuSans-110"/>
      </defs>
      <g style="fill:#555555;" transform="translate(70.887344 382.192875)scale(0.12 -0.12)">
       <use xlink:href="#DejaVuSans-74"/>
       <use x="29.492188" xlink:href="#DejaVuSans-97"/>
       <use x="90.771484" xlink:href="#DejaVuSans-110"/>
      </g>
      <!-- 2016 -->
      <defs>
       <path d="M 19.1875 8.296875 
L 53.609375 8.296875 
L 53.609375 0 
L 7.328125 0 
L 7.328125 8.296875 
Q 12.9375 14.109375 22.625 23.890625 
Q 32.328125 33.6875 34.8125 36.53125 
Q 39.546875 41.84375 41.421875 45.53125 
Q 43.3125 49.21875 43.3125 52.78125 
Q 43.3125 58.59375 39.234375 62.25 
Q 35.15625 65.921875 28.609375 65.921875 
Q 23.96875 65.921875 18.8125 64.3125 
Q 13.671875 62.703125 7.8125 59.421875 
L 7.8125 69.390625 
Q 13.765625 71.78125 18.9375 73 
Q 24.125 74.21875 28.421875 74.21875 
Q 39.75 74.21875 46.484375 68.546875 
Q 53.21875 62.890625 53.21875 53.421875 
Q 53.21875 48.921875 51.53125 44.890625 
Q 49.859375 40.875 45.40625 35.40625 
Q 44.1875 33.984375 37.640625 27.21875 
Q 31.109375 20.453125 19.1875 8.296875 
z
" id="DejaVuSans-50"/>
       <path d="M 31.78125 66.40625 
Q 24.171875 66.40625 20.328125 58.90625 
Q 16.5 51.421875 16.5 36.375 
Q 16.5 21.390625 20.328125 13.890625 
Q 24.171875 6.390625 31.78125 6.390625 
Q 39.453125 6.390625 43.28125 13.890625 
Q 47.125 21.390625 47.125 36.375 
Q 47.125 51.421875 43.28125 58.90625 
Q 39.453125 66.40625 31.78125 66.40625 
z
M 31.78125 74.21875 
Q 44.046875 74.21875 50.515625 64.515625 
Q 56.984375 54.828125 56.984375 36.375 
Q 56.984375 17.96875 50.515625 8.265625 
Q 44.046875 -1.421875 31.78125 -1.421875 
Q 19.53125 -1.421875 13.0625 8.265625 
Q 6.59375 17.96875 6.59375 36.375 
Q 6.59375 54.828125 13.0625 64.515625 
Q 19.53125 74.21875 31.78125 74.21875 
z
" id="DejaVuSans-48"/>
       <path d="M 12.40625 8.296875 
L 28.515625 8.296875 
L 28.515625 63.921875 
L 10.984375 60.40625 
L 10.984375 69.390625 
L 28.421875 72.90625 
L 38.28125 72.90625 
L 38.28125 8.296875 
L 54.390625 8.296875 
L 54.390625 0 
L 12.40625 0 
z
" id="DejaVuSans-49"/>
       <path d="M 33.015625 40.375 
Q 26.375 40.375 22.484375 35.828125 
Q 18.609375 31.296875 18.609375 23.390625 
Q 18.609375 15.53125 22.484375 10.953125 
Q 26.375 6.390625 33.015625 6.390625 
Q 39.65625 6.390625 43.53125 10.953125 
Q 47.40625 15.53125 47.40625 23.390625 
Q 47.40625 31.296875 43.53125 35.828125 
Q 39.65625 40.375 33.015625 40.375 
z
M 52.59375 71.296875 
L 52.59375 62.3125 
Q 48.875 64.0625 45.09375 64.984375 
Q 41.3125 65.921875 37.59375 65.921875 
Q 27.828125 65.921875 22.671875 59.328125 
Q 17.53125 52.734375 16.796875 39.40625 
Q 19.671875 43.65625 24.015625 45.921875 
Q 28.375 48.1875 33.59375 48.1875 
Q 44.578125 48.1875 50.953125 41.515625 
Q 57.328125 34.859375 57.328125 23.390625 
Q 57.328125 12.15625 50.6875 5.359375 
Q 44.046875 -1.421875 33.015625 -1.421875 
Q 20.359375 -1.421875 13.671875 8.265625 
Q 6.984375 17.96875 6.984375 36.375 
Q 6.984375 53.65625 15.1875 63.9375 
Q 23.390625 74.21875 37.203125 74.21875 
Q 40.921875 74.21875 44.703125 73.484375 
Q 48.484375 72.75 52.59375 71.296875 
z
" id="DejaVuSans-54"/>
      </defs>
      <g style="fill:#555555;" transform="translate(64.866719 395.63025)scale(0.12 -0.12)">
       <use xlink:href="#DejaVuSans-50"/>
       <use x="63.623047" xlink:href="#DejaVuSans-48"/>
       <use x="127.246094" xlink:href="#DejaVuSans-49"/>
       <use x="190.869141" xlink:href="#DejaVuSans-54"/>
      </g>
     </g>
    </g>
    <g id="xtick_3">
     <g id="line2d_5">
      <path clip-path="url(#pb447c8bdda)" d="M 842.325 339.2 
L 842.325 30.8 
" style="fill:none;stroke:#ffffff;stroke-linecap:square;stroke-width:0.8;"/>
     </g>
     <g id="line2d_6">
      <g>
       <use style="fill:#555555;stroke:#555555;stroke-width:0.8;" x="842.325" xlink:href="#m566976d4f7" y="339.2"/>
      </g>
     </g>
     <g id="text_2">
      <!--  -->
      <g style="fill:#555555;" transform="translate(842.325 355.318125)scale(0.12 -0.12)"/>
      <!--  -->
      <g style="fill:#555555;" transform="translate(842.325 368.7555)scale(0.12 -0.12)"/>
      <!-- Feb -->
      <defs>
       <path d="M 9.8125 72.90625 
L 51.703125 72.90625 
L 51.703125 64.59375 
L 19.671875 64.59375 
L 19.671875 43.109375 
L 48.578125 43.109375 
L 48.578125 34.8125 
L 19.671875 34.8125 
L 19.671875 0 
L 9.8125 0 
z
" id="DejaVuSans-70"/>
       <path d="M 56.203125 29.59375 
L 56.203125 25.203125 
L 14.890625 25.203125 
Q 15.484375 15.921875 20.484375 11.0625 
Q 25.484375 6.203125 34.421875 6.203125 
Q 39.59375 6.203125 44.453125 7.46875 
Q 49.3125 8.734375 54.109375 11.28125 
L 54.109375 2.78125 
Q 49.265625 0.734375 44.1875 -0.34375 
Q 39.109375 -1.421875 33.890625 -1.421875 
Q 20.796875 -1.421875 13.15625 6.1875 
Q 5.515625 13.8125 5.515625 26.8125 
Q 5.515625 40.234375 12.765625 48.109375 
Q 20.015625 56 32.328125 56 
Q 43.359375 56 49.78125 48.890625 
Q 56.203125 41.796875 56.203125 29.59375 
z
M 47.21875 32.234375 
Q 47.125 39.59375 43.09375 43.984375 
Q 39.0625 48.390625 32.421875 48.390625 
Q 24.90625 48.390625 20.390625 44.140625 
Q 15.875 39.890625 15.1875 32.171875 
z
" id="DejaVuSans-101"/>
       <path d="M 48.6875 27.296875 
Q 48.6875 37.203125 44.609375 42.84375 
Q 40.53125 48.484375 33.40625 48.484375 
Q 26.265625 48.484375 22.1875 42.84375 
Q 18.109375 37.203125 18.109375 27.296875 
Q 18.109375 17.390625 22.1875 11.75 
Q 26.265625 6.109375 33.40625 6.109375 
Q 40.53125 6.109375 44.609375 11.75 
Q 48.6875 17.390625 48.6875 27.296875 
z
M 18.109375 46.390625 
Q 20.953125 51.265625 25.265625 53.625 
Q 29.59375 56 35.59375 56 
Q 45.5625 56 51.78125 48.09375 
Q 58.015625 40.1875 58.015625 27.296875 
Q 58.015625 14.40625 51.78125 6.484375 
Q 45.5625 -1.421875 35.59375 -1.421875 
Q 29.59375 -1.421875 25.265625 0.953125 
Q 20.953125 3.328125 18.109375 8.203125 
L 18.109375 0 
L 9.078125 0 
L 9.078125 75.984375 
L 18.109375 75.984375 
z
" id="DejaVuSans-98"/>
      </defs>
      <g style="fill:#555555;" transform="translate(831.377812 382.192875)scale(0.12 -0.12)">
       <use xlink:href="#DejaVuSans-70"/>
       <use x="57.441406" xlink:href="#DejaVuSans-101"/>
       <use x="118.964844" xlink:href="#DejaVuSans-98"/>
      </g>
     </g>
    </g>
    <g id="xtick_4">
     <g id="line2d_7">
      <defs>
       <path d="M 0 0 
L 0 2 
" id="mac61bbbc20" style="stroke:#555555;stroke-width:0.6;"/>
      </defs>
      <g>
       <use style="fill:#555555;stroke:#555555;stroke-width:0.6;" x="55.55" xlink:href="#mac61bbbc20" y="339.2"/>
      </g>
     </g>
    </g>
    <g id="xtick_5">
     <g id="line2d_8">
      <g>
       <use style="fill:#555555;stroke:#555555;stroke-width:0.6;" x="80.136719" xlink:href="#mac61bbbc20" y="339.2"/>
      </g>
     </g>
    </g>
    <g id="xtick_6">
     <g id="line2d_9">
      <g>
       <use style="fill:#555555;stroke:#555555;stroke-width:0.6;" x="104.723438" xlink:href="#mac61bbbc20" y="339.2"/>
      </g>
     </g>
    </g>
    <g id="xtick_7">
     <g id="line2d_10">
      <g>
       <use style="fill:#555555;stroke:#555555;stroke-width:0.6;" x="129.310156" xlink:href="#mac61bbbc20" y="339.2"/>
      </g>
     </g>
    </g>
    <g id="xtick_8">
     <g id="line2d_11">
      <g>
       <use style="fill:#555555;stroke:#555555;stroke-width:0.6;" x="153.896875" xlink:href="#mac61bbbc20" y="339.2"/>
      </g>
     </g>
     <g id="text_3">
      <!-- 04 -->
      <defs>
       <path d="M 37.796875 64.3125 
L 12.890625 25.390625 
L 37.796875 25.390625 
z
M 35.203125 72.90625 
L 47.609375 72.90625 
L 47.609375 25.390625 
L 58.015625 25.390625 
L 58.015625 17.1875 
L 47.609375 17.1875 
L 47.609375 0 
L 37.796875 0 
L 37.796875 17.1875 
L 4.890625 17.1875 
L 4.890625 26.703125 
z
" id="DejaVuSans-52"/>
      </defs>
      <g style="fill:#555555;" transform="translate(146.261875 353.718125)scale(0.12 -0.12)">
       <use xlink:href="#DejaVuSans-48"/>
       <use x="63.623047" xlink:href="#DejaVuSans-52"/>
      </g>
     </g>
    </g>
    <g id="xtick_9">
     <g id="line2d_12">
      <g>
       <use style="fill:#555555;stroke:#555555;stroke-width:0.6;" x="178.483594" xlink:href="#mac61bbbc20" y="339.2"/>
      </g>
     </g>
    </g>
    <g id="xtick_10">
     <g id="line2d_13">
      <g>
       <use style="fill:#555555;stroke:#555555;stroke-width:0.6;" x="203.070312" xlink:href="#mac61bbbc20" y="339.2"/>
      </g>
     </g>
    </g>
    <g id="xtick_11">
     <g id="line2d_14">
      <g>
       <use style="fill:#555555;stroke:#555555;stroke-width:0.6;" x="227.657031" xlink:href="#mac61bbbc20" y="339.2"/>
      </g>
     </g>
    </g>
    <g id="xtick_12">
     <g id="line2d_15">
      <g>
       <use style="fill:#555555;stroke:#555555;stroke-width:0.6;" x="252.24375" xlink:href="#mac61bbbc20" y="339.2"/>
      </g>
     </g>
    </g>
    <g id="xtick_13">
     <g id="line2d_16">
      <g>
       <use style="fill:#555555;stroke:#555555;stroke-width:0.6;" x="276.830469" xlink:href="#mac61bbbc20" y="339.2"/>
      </g>
     </g>
    </g>
    <g id="xtick_14">
     <g id="line2d_17">
      <g>
       <use style="fill:#555555;stroke:#555555;stroke-width:0.6;" x="301.417187" xlink:href="#mac61bbbc20" y="339.2"/>
      </g>
     </g>
    </g>
    <g id="xtick_15">
     <g id="line2d_18">
      <g>
       <use style="fill:#555555;stroke:#555555;stroke-width:0.6;" x="326.003906" xlink:href="#mac61bbbc20" y="339.2"/>
      </g>
     </g>
     <g id="text_4">
      <!-- 11 -->
      <g style="fill:#555555;" transform="translate(318.368906 353.718125)scale(0.12 -0.12)">
       <use xlink:href="#DejaVuSans-49"/>
       <use x="63.623047" xlink:href="#DejaVuSans-49"/>
      </g>
     </g>
    </g>
    <g id="xtick_16">
     <g id="line2d_19">
      <g>
       <use style="fill:#555555;stroke:#555555;stroke-width:0.6;" x="350.590625" xlink:href="#mac61bbbc20" y="339.2"/>
      </g>
     </g>
    </g>
    <g id="xtick_17">
     <g id="line2d_20">
      <g>
       <use style="fill:#555555;stroke:#555555;stroke-width:0.6;" x="375.177344" xlink:href="#mac61bbbc20" y="339.2"/>
      </g>
     </g>
    </g>
    <g id="xtick_18">
     <g id="line2d_21">
      <g>
       <use style="fill:#555555;stroke:#555555;stroke-width:0.6;" x="399.764062" xlink:href="#mac61bbbc20" y="339.2"/>
      </g>
     </g>
    </g>
    <g id="xtick_19">
     <g id="line2d_22">
      <g>
       <use style="fill:#555555;stroke:#555555;stroke-width:0.6;" x="424.350781" xlink:href="#mac61bbbc20" y="339.2"/>
      </g>
     </g>
    </g>
    <g id="xtick_20">
     <g id="line2d_23">
      <g>
       <use style="fill:#555555;stroke:#555555;stroke-width:0.6;" x="448.9375" xlink:href="#mac61bbbc20" y="339.2"/>
      </g>
     </g>
    </g>
    <g id="xtick_21">
     <g id="line2d_24">
      <g>
       <use style="fill:#555555;stroke:#555555;stroke-width:0.6;" x="473.524219" xlink:href="#mac61bbbc20" y="339.2"/>
      </g>
     </g>
    </g>
    <g id="xtick_22">
     <g id="line2d_25">
      <g>
       <use style="fill:#555555;stroke:#555555;stroke-width:0.6;" x="498.110937" xlink:href="#mac61bbbc20" y="339.2"/>
      </g>
     </g>
     <g id="text_5">
      <!-- 18 -->
      <defs>
       <path d="M 31.78125 34.625 
Q 24.75 34.625 20.71875 30.859375 
Q 16.703125 27.09375 16.703125 20.515625 
Q 16.703125 13.921875 20.71875 10.15625 
Q 24.75 6.390625 31.78125 6.390625 
Q 38.8125 6.390625 42.859375 10.171875 
Q 46.921875 13.96875 46.921875 20.515625 
Q 46.921875 27.09375 42.890625 30.859375 
Q 38.875 34.625 31.78125 34.625 
z
M 21.921875 38.8125 
Q 15.578125 40.375 12.03125 44.71875 
Q 8.5 49.078125 8.5 55.328125 
Q 8.5 64.0625 14.71875 69.140625 
Q 20.953125 74.21875 31.78125 74.21875 
Q 42.671875 74.21875 48.875 69.140625 
Q 55.078125 64.0625 55.078125 55.328125 
Q 55.078125 49.078125 51.53125 44.71875 
Q 48 40.375 41.703125 38.8125 
Q 48.828125 37.15625 52.796875 32.3125 
Q 56.78125 27.484375 56.78125 20.515625 
Q 56.78125 9.90625 50.3125 4.234375 
Q 43.84375 -1.421875 31.78125 -1.421875 
Q 19.734375 -1.421875 13.25 4.234375 
Q 6.78125 9.90625 6.78125 20.515625 
Q 6.78125 27.484375 10.78125 32.3125 
Q 14.796875 37.15625 21.921875 38.8125 
z
M 18.3125 54.390625 
Q 18.3125 48.734375 21.84375 45.5625 
Q 25.390625 42.390625 31.78125 42.390625 
Q 38.140625 42.390625 41.71875 45.5625 
Q 45.3125 48.734375 45.3125 54.390625 
Q 45.3125 60.0625 41.71875 63.234375 
Q 38.140625 66.40625 31.78125 66.40625 
Q 25.390625 66.40625 21.84375 63.234375 
Q 18.3125 60.0625 18.3125 54.390625 
z
" id="DejaVuSans-56"/>
      </defs>
      <g style="fill:#555555;" transform="translate(490.475937 353.718125)scale(0.12 -0.12)">
       <use xlink:href="#DejaVuSans-49"/>
       <use x="63.623047" xlink:href="#DejaVuSans-56"/>
      </g>
     </g>
    </g>
    <g id="xtick_23">
     <g id="line2d_26">
      <g>
       <use style="fill:#555555;stroke:#555555;stroke-width:0.6;" x="522.697656" xlink:href="#mac61bbbc20" y="339.2"/>
      </g>
     </g>
    </g>
    <g id="xtick_24">
     <g id="line2d_27">
      <g>
       <use style="fill:#555555;stroke:#555555;stroke-width:0.6;" x="547.284375" xlink:href="#mac61bbbc20" y="339.2"/>
      </g>
     </g>
    </g>
    <g id="xtick_25">
     <g id="line2d_28">
      <g>
       <use style="fill:#555555;stroke:#555555;stroke-width:0.6;" x="571.871094" xlink:href="#mac61bbbc20" y="339.2"/>
      </g>
     </g>
    </g>
    <g id="xtick_26">
     <g id="line2d_29">
      <g>
       <use style="fill:#555555;stroke:#555555;stroke-width:0.6;" x="596.457812" xlink:href="#mac61bbbc20" y="339.2"/>
      </g>
     </g>
    </g>
    <g id="xtick_27">
     <g id="line2d_30">
      <g>
       <use style="fill:#555555;stroke:#555555;stroke-width:0.6;" x="621.044531" xlink:href="#mac61bbbc20" y="339.2"/>
      </g>
     </g>
    </g>
    <g id="xtick_28">
     <g id="line2d_31">
      <g>
       <use style="fill:#555555;stroke:#555555;stroke-width:0.6;" x="645.63125" xlink:href="#mac61bbbc20" y="339.2"/>
      </g>
     </g>
    </g>
    <g id="xtick_29">
     <g id="line2d_32">
      <g>
       <use style="fill:#555555;stroke:#555555;stroke-width:0.6;" x="670.217969" xlink:href="#mac61bbbc20" y="339.2"/>
      </g>
     </g>
     <g id="text_6">
      <!-- 25 -->
      <defs>
       <path d="M 10.796875 72.90625 
L 49.515625 72.90625 
L 49.515625 64.59375 
L 19.828125 64.59375 
L 19.828125 46.734375 
Q 21.96875 47.46875 24.109375 47.828125 
Q 26.265625 48.1875 28.421875 48.1875 
Q 40.625 48.1875 47.75 41.5 
Q 54.890625 34.8125 54.890625 23.390625 
Q 54.890625 11.625 47.5625 5.09375 
Q 40.234375 -1.421875 26.90625 -1.421875 
Q 22.3125 -1.421875 17.546875 -0.640625 
Q 12.796875 0.140625 7.71875 1.703125 
L 7.71875 11.625 
Q 12.109375 9.234375 16.796875 8.0625 
Q 21.484375 6.890625 26.703125 6.890625 
Q 35.15625 6.890625 40.078125 11.328125 
Q 45.015625 15.765625 45.015625 23.390625 
Q 45.015625 31 40.078125 35.4375 
Q 35.15625 39.890625 26.703125 39.890625 
Q 22.75 39.890625 18.8125 39.015625 
Q 14.890625 38.140625 10.796875 36.28125 
z
" id="DejaVuSans-53"/>
      </defs>
      <g style="fill:#555555;" transform="translate(662.582969 353.718125)scale(0.12 -0.12)">
       <use xlink:href="#DejaVuSans-50"/>
       <use x="63.623047" xlink:href="#DejaVuSans-53"/>
      </g>
     </g>
    </g>
    <g id="xtick_30">
     <g id="line2d_33">
      <g>
       <use style="fill:#555555;stroke:#555555;stroke-width:0.6;" x="694.804687" xlink:href="#mac61bbbc20" y="339.2"/>
      </g>
     </g>
    </g>
    <g id="xtick_31">
     <g id="line2d_34">
      <g>
       <use style="fill:#555555;stroke:#555555;stroke-width:0.6;" x="719.391406" xlink:href="#mac61bbbc20" y="339.2"/>
      </g>
     </g>
    </g>
    <g id="xtick_32">
     <g id="line2d_35">
      <g>
       <use style="fill:#555555;stroke:#555555;stroke-width:0.6;" x="743.978125" xlink:href="#mac61bbbc20" y="339.2"/>
      </g>
     </g>
    </g>
    <g id="xtick_33">
     <g id="line2d_36">
      <g>
       <use style="fill:#555555;stroke:#555555;stroke-width:0.6;" x="768.564844" xlink:href="#mac61bbbc20" y="339.2"/>
      </g>
     </g>
    </g>
    <g id="xtick_34">
     <g id="line2d_37">
      <g>
       <use style="fill:#555555;stroke:#555555;stroke-width:0.6;" x="793.151562" xlink:href="#mac61bbbc20" y="339.2"/>
      </g>
     </g>
    </g>
    <g id="xtick_35">
     <g id="line2d_38">
      <g>
       <use style="fill:#555555;stroke:#555555;stroke-width:0.6;" x="817.738281" xlink:href="#mac61bbbc20" y="339.2"/>
      </g>
     </g>
    </g>
    <g id="xtick_36">
     <g id="line2d_39">
      <g>
       <use style="fill:#555555;stroke:#555555;stroke-width:0.6;" x="842.325" xlink:href="#mac61bbbc20" y="339.2"/>
      </g>
     </g>
    </g>
    <g id="text_7">
     <!-- Date -->
     <defs>
      <path d="M 19.671875 64.796875 
L 19.671875 8.109375 
L 31.59375 8.109375 
Q 46.6875 8.109375 53.6875 14.9375 
Q 60.6875 21.78125 60.6875 36.53125 
Q 60.6875 51.171875 53.6875 57.984375 
Q 46.6875 64.796875 31.59375 64.796875 
z
M 9.8125 72.90625 
L 30.078125 72.90625 
Q 51.265625 72.90625 61.171875 64.09375 
Q 71.09375 55.28125 71.09375 36.53125 
Q 71.09375 17.671875 61.125 8.828125 
Q 51.171875 0 30.078125 0 
L 9.8125 0 
z
" id="DejaVuSans-68"/>
      <path d="M 18.3125 70.21875 
L 18.3125 54.6875 
L 36.8125 54.6875 
L 36.8125 47.703125 
L 18.3125 47.703125 
L 18.3125 18.015625 
Q 18.3125 11.328125 20.140625 9.421875 
Q 21.96875 7.515625 27.59375 7.515625 
L 36.8125 7.515625 
L 36.8125 0 
L 27.59375 0 
Q 17.1875 0 13.234375 3.875 
Q 9.28125 7.765625 9.28125 18.015625 
L 9.28125 47.703125 
L 2.6875 47.703125 
L 2.6875 54.6875 
L 9.28125 54.6875 
L 9.28125 70.21875 
z
" id="DejaVuSans-116"/>
     </defs>
     <g style="fill:#555555;" transform="translate(434.596562 411.244)scale(0.12 -0.12)">
      <use xlink:href="#DejaVuSans-68"/>
      <use x="77.001953" xlink:href="#DejaVuSans-97"/>
      <use x="138.28125" xlink:href="#DejaVuSans-116"/>
      <use x="177.490234" xlink:href="#DejaVuSans-101"/>
     </g>
    </g>
   </g>
   <g id="matplotlib.axis_2">
    <g id="ytick_1">
     <g id="line2d_40">
      <path clip-path="url(#pb447c8bdda)" d="M 55.55 313.5 
L 842.325 313.5 
" style="fill:none;stroke:#ffffff;stroke-linecap:square;stroke-width:0.8;"/>
     </g>
     <g id="line2d_41">
      <defs>
       <path d="M 0 0 
L -3.5 0 
" id="ma7ab646934" style="stroke:#555555;stroke-width:0.8;"/>
      </defs>
      <g>
       <use style="fill:#555555;stroke:#555555;stroke-width:0.8;" x="55.55" xlink:href="#ma7ab646934" y="313.5"/>
      </g>
     </g>
     <g id="text_8">
      <!-- 6000 -->
      <g style="fill:#555555;" transform="translate(18.01 318.059062)scale(0.12 -0.12)">
       <use xlink:href="#DejaVuSans-54"/>
       <use x="63.623047" xlink:href="#DejaVuSans-48"/>
       <use x="127.246094" xlink:href="#DejaVuSans-48"/>
       <use x="190.869141" xlink:href="#DejaVuSans-48"/>
      </g>
     </g>
    </g>
    <g id="ytick_2">
     <g id="line2d_42">
      <path clip-path="url(#pb447c8bdda)" d="M 55.55 262.1 
L 842.325 262.1 
" style="fill:none;stroke:#ffffff;stroke-linecap:square;stroke-width:0.8;"/>
     </g>
     <g id="line2d_43">
      <g>
       <use style="fill:#555555;stroke:#555555;stroke-width:0.8;" x="55.55" xlink:href="#ma7ab646934" y="262.1"/>
      </g>
     </g>
     <g id="text_9">
      <!-- 8000 -->
      <g style="fill:#555555;" transform="translate(18.01 266.659063)scale(0.12 -0.12)">
       <use xlink:href="#DejaVuSans-56"/>
       <use x="63.623047" xlink:href="#DejaVuSans-48"/>
       <use x="127.246094" xlink:href="#DejaVuSans-48"/>
       <use x="190.869141" xlink:href="#DejaVuSans-48"/>
      </g>
     </g>
    </g>
    <g id="ytick_3">
     <g id="line2d_44">
      <path clip-path="url(#pb447c8bdda)" d="M 55.55 210.7 
L 842.325 210.7 
" style="fill:none;stroke:#ffffff;stroke-linecap:square;stroke-width:0.8;"/>
     </g>
     <g id="line2d_45">
      <g>
       <use style="fill:#555555;stroke:#555555;stroke-width:0.8;" x="55.55" xlink:href="#ma7ab646934" y="210.7"/>
      </g>
     </g>
     <g id="text_10">
      <!-- 10000 -->
      <g style="fill:#555555;" transform="translate(10.375 215.259063)scale(0.12 -0.12)">
       <use xlink:href="#DejaVuSans-49"/>
       <use x="63.623047" xlink:href="#DejaVuSans-48"/>
       <use x="127.246094" xlink:href="#DejaVuSans-48"/>
       <use x="190.869141" xlink:href="#DejaVuSans-48"/>
       <use x="254.492188" xlink:href="#DejaVuSans-48"/>
      </g>
     </g>
    </g>
    <g id="ytick_4">
     <g id="line2d_46">
      <path clip-path="url(#pb447c8bdda)" d="M 55.55 159.3 
L 842.325 159.3 
" style="fill:none;stroke:#ffffff;stroke-linecap:square;stroke-width:0.8;"/>
     </g>
     <g id="line2d_47">
      <g>
       <use style="fill:#555555;stroke:#555555;stroke-width:0.8;" x="55.55" xlink:href="#ma7ab646934" y="159.3"/>
      </g>
     </g>
     <g id="text_11">
      <!-- 12000 -->
      <g style="fill:#555555;" transform="translate(10.375 163.859062)scale(0.12 -0.12)">
       <use xlink:href="#DejaVuSans-49"/>
       <use x="63.623047" xlink:href="#DejaVuSans-50"/>
       <use x="127.246094" xlink:href="#DejaVuSans-48"/>
       <use x="190.869141" xlink:href="#DejaVuSans-48"/>
       <use x="254.492188" xlink:href="#DejaVuSans-48"/>
      </g>
     </g>
    </g>
    <g id="ytick_5">
     <g id="line2d_48">
      <path clip-path="url(#pb447c8bdda)" d="M 55.55 107.9 
L 842.325 107.9 
" style="fill:none;stroke:#ffffff;stroke-linecap:square;stroke-width:0.8;"/>
     </g>
     <g id="line2d_49">
      <g>
       <use style="fill:#555555;stroke:#555555;stroke-width:0.8;" x="55.55" xlink:href="#ma7ab646934" y="107.9"/>
      </g>
     </g>
     <g id="text_12">
      <!-- 14000 -->
      <g style="fill:#555555;" transform="translate(10.375 112.459063)scale(0.12 -0.12)">
       <use xlink:href="#DejaVuSans-49"/>
       <use x="63.623047" xlink:href="#DejaVuSans-52"/>
       <use x="127.246094" xlink:href="#DejaVuSans-48"/>
       <use x="190.869141" xlink:href="#DejaVuSans-48"/>
       <use x="254.492188" xlink:href="#DejaVuSans-48"/>
      </g>
     </g>
    </g>
    <g id="ytick_6">
     <g id="line2d_50">
      <path clip-path="url(#pb447c8bdda)" d="M 55.55 56.5 
L 842.325 56.5 
" style="fill:none;stroke:#ffffff;stroke-linecap:square;stroke-width:0.8;"/>
     </g>
     <g id="line2d_51">
      <g>
       <use style="fill:#555555;stroke:#555555;stroke-width:0.8;" x="55.55" xlink:href="#ma7ab646934" y="56.5"/>
      </g>
     </g>
     <g id="text_13">
      <!-- 16000 -->
      <g style="fill:#555555;" transform="translate(10.375 61.059063)scale(0.12 -0.12)">
       <use xlink:href="#DejaVuSans-49"/>
       <use x="63.623047" xlink:href="#DejaVuSans-54"/>
       <use x="127.246094" xlink:href="#DejaVuSans-48"/>
       <use x="190.869141" xlink:href="#DejaVuSans-48"/>
       <use x="254.492188" xlink:href="#DejaVuSans-48"/>
      </g>
     </g>
    </g>
   </g>
   <g id="line2d_52">
    <path clip-path="url(#pb447c8bdda)" d="M 80.136719 205.4572 
L 104.723438 279.6788 
L 129.310156 244.5469 
L 153.896875 251.0747 
L 178.483594 208.5155 
L 203.070312 219.6436 
L 227.657031 236.7855 
L 252.24375 185.3855 
L 276.830469 271.9688 
L 301.417187 285.1015 
L 326.003906 223.3958 
L 350.590625 251.2032 
L 375.177344 228.2788 
L 399.764062 240.7176 
L 424.350781 201.448 
L 448.9375 258.502 
L 473.524219 283.8936 
L 498.110937 220.9286 
L 522.697656 251.1775 
L 547.284375 212.1392 
L 571.871094 216.1741 
L 596.457812 169.1945 
L 621.044531 236.0145 
L 645.63125 269.2446 
L 670.217969 225.4004 
L 694.804687 245.8576 
L 719.391406 233.7786 
L 743.978125 211.7537 
L 768.564844 186.5163 
L 793.151562 265.2611 
L 817.738281 254.3386 
" style="fill:none;stroke:#e24a33;stroke-linecap:square;stroke-opacity:0.3;stroke-width:1.5;"/>
   </g>
   <g id="line2d_53">
    <path clip-path="url(#pb447c8bdda)" d="M 80.136719 212.6532 
L 104.723438 235.6804 
L 129.310156 259.4015 
L 153.896875 261.2262 
L 178.483594 213.8097 
L 203.070312 227.148 
L 227.657031 240.6662 
L 252.24375 194.2777 
L 276.830469 246.9627 
L 301.417187 269.7586 
L 326.003906 247.5538 
L 350.590625 247.8365 
L 375.177344 213.9896 
L 399.764062 246.2431 
L 424.350781 197.7729 
L 448.9375 248.1449 
L 473.524219 283.2511 
L 498.110937 233.6501 
L 522.697656 242.4395 
L 547.284375 224.2182 
L 571.871094 213.8868 
L 596.457812 195.3314 
L 621.044531 260.6094 
L 645.63125 270.324 
L 670.217969 239.1756 
L 694.804687 263.3336 
L 719.391406 246.4487 
L 743.978125 216.6624 
L 768.564844 201.3452 
L 793.151562 250.1495 
L 817.738281 252.6167 
" style="fill:none;stroke:#348abd;stroke-linecap:square;stroke-opacity:0.3;stroke-width:1.5;"/>
   </g>
   <g id="line2d_54">
    <path clip-path="url(#pb447c8bdda)" d="M 80.136719 166.1362 
L 104.723438 261.9715 
L 129.310156 287.5173 
L 153.896875 256.9343 
L 178.483594 239.6382 
L 203.070312 219.0782 
L 227.657031 252.591 
L 252.24375 168.809 
L 276.830469 290.627 
L 301.417187 274.436 
L 326.003906 228.3816 
L 350.590625 268.9105 
L 375.177344 251.4088 
L 399.764062 240.8718 
L 424.350781 171.3019 
L 448.9375 253.2078 
L 473.524219 271.1721 
L 498.110937 241.7199 
L 522.697656 250.8948 
L 547.284375 251.1518 
L 571.871094 245.7291 
L 596.457812 166.7787 
L 621.044531 257.2427 
L 645.63125 283.5081 
L 670.217969 248.0935 
L 694.804687 247.5795 
L 719.391406 237.5822 
L 743.978125 226.7368 
L 768.564844 153.1063 
L 793.151562 269.1161 
L 817.738281 280.8867 
" style="fill:none;stroke:#988ed5;stroke-linecap:square;stroke-opacity:0.3;stroke-width:1.5;"/>
   </g>
   <g id="line2d_55">
    <path clip-path="url(#pb447c8bdda)" d="M 80.136719 179.0376 
L 104.723438 232.4936 
L 129.310156 251.6658 
L 153.896875 263.642 
L 178.483594 246.5001 
L 203.070312 204.8404 
L 227.657031 236.5799 
L 252.24375 147.4009 
L 276.830469 292.9657 
L 301.417187 272.8169 
L 326.003906 235.4491 
L 350.590625 251.3574 
L 375.177344 229.2297 
L 399.764062 267.1372 
L 424.350781 165.3652 
L 448.9375 225.3233 
L 473.524219 284.9216 
L 498.110937 229.975 
L 522.697656 267.9339 
L 547.284375 255.0068 
L 571.871094 226.7368 
L 596.457812 137.5321 
L 621.044531 243.7759 
L 645.63125 290.8583 
L 670.217969 230.5661 
L 694.804687 231.4142 
L 719.391406 257.3455 
L 743.978125 205.56 
L 768.564844 149.6111 
L 793.151562 271.5576 
L 817.738281 276.492 
" style="fill:none;stroke:#777777;stroke-linecap:square;stroke-opacity:0.3;stroke-width:1.5;"/>
   </g>
   <g id="line2d_56">
    <path clip-path="url(#pb447c8bdda)" d="M 80.136719 250.6378 
L 104.723438 263.385 
L 129.310156 251.8971 
L 153.896875 222.5991 
L 178.483594 207.5389 
L 203.070312 251.563 
L 227.657031 164.6713 
L 252.24375 257.4997 
L 276.830469 282.8399 
L 301.417187 195.794 
L 326.003906 208.3613 
L 350.590625 230.0521 
L 375.177344 204.275 
L 399.764062 152.5152 
L 424.350781 284.5361 
L 448.9375 283.3282 
L 473.524219 228.3559 
L 498.110937 250.7663 
L 522.697656 233.8043 
L 547.284375 243.1077 
L 571.871094 182.2244 
L 596.457812 291.2695 
L 621.044531 280.8353 
L 645.63125 213.6041 
L 670.217969 234.6524 
L 694.804687 214.9405 
L 719.391406 193.8408 
L 743.978125 158.6061 
L 768.564844 273.5622 
L 793.151562 277.1859 
L 817.738281 179.8343 
" style="fill:none;stroke:#2ca02c;stroke-linecap:square;stroke-opacity:0.6;stroke-width:2;"/>
    <defs>
     <path d="M 0 1.5 
C 0.397805 1.5 0.77937 1.341951 1.06066 1.06066 
C 1.341951 0.77937 1.5 0.397805 1.5 0 
C 1.5 -0.397805 1.341951 -0.77937 1.06066 -1.06066 
C 0.77937 -1.341951 0.397805 -1.5 0 -1.5 
C -0.397805 -1.5 -0.77937 -1.341951 -1.06066 -1.06066 
C -1.341951 -0.77937 -1.5 -0.397805 -1.5 0 
C -1.5 0.397805 -1.341951 0.77937 -1.06066 1.06066 
C -0.77937 1.341951 -0.397805 1.5 0 1.5 
z
" id="md9b7936daf" style="stroke:#2ca02c;stroke-opacity:0.6;"/>
    </defs>
    <g clip-path="url(#pb447c8bdda)">
     <use style="fill:#2ca02c;fill-opacity:0.6;stroke:#2ca02c;stroke-opacity:0.6;" x="80.136719" xlink:href="#md9b7936daf" y="250.6378"/>
     <use style="fill:#2ca02c;fill-opacity:0.6;stroke:#2ca02c;stroke-opacity:0.6;" x="104.723438" xlink:href="#md9b7936daf" y="263.385"/>
     <use style="fill:#2ca02c;fill-opacity:0.6;stroke:#2ca02c;stroke-opacity:0.6;" x="129.310156" xlink:href="#md9b7936daf" y="251.8971"/>
     <use style="fill:#2ca02c;fill-opacity:0.6;stroke:#2ca02c;stroke-opacity:0.6;" x="153.896875" xlink:href="#md9b7936daf" y="222.5991"/>
     <use style="fill:#2ca02c;fill-opacity:0.6;stroke:#2ca02c;stroke-opacity:0.6;" x="178.483594" xlink:href="#md9b7936daf" y="207.5389"/>
     <use style="fill:#2ca02c;fill-opacity:0.6;stroke:#2ca02c;stroke-opacity:0.6;" x="203.070312" xlink:href="#md9b7936daf" y="251.563"/>
     <use style="fill:#2ca02c;fill-opacity:0.6;stroke:#2ca02c;stroke-opacity:0.6;" x="227.657031" xlink:href="#md9b7936daf" y="164.6713"/>
     <use style="fill:#2ca02c;fill-opacity:0.6;stroke:#2ca02c;stroke-opacity:0.6;" x="252.24375" xlink:href="#md9b7936daf" y="257.4997"/>
     <use style="fill:#2ca02c;fill-opacity:0.6;stroke:#2ca02c;stroke-opacity:0.6;" x="276.830469" xlink:href="#md9b7936daf" y="282.8399"/>
     <use style="fill:#2ca02c;fill-opacity:0.6;stroke:#2ca02c;stroke-opacity:0.6;" x="301.417187" xlink:href="#md9b7936daf" y="195.794"/>
     <use style="fill:#2ca02c;fill-opacity:0.6;stroke:#2ca02c;stroke-opacity:0.6;" x="326.003906" xlink:href="#md9b7936daf" y="208.3613"/>
     <use style="fill:#2ca02c;fill-opacity:0.6;stroke:#2ca02c;stroke-opacity:0.6;" x="350.590625" xlink:href="#md9b7936daf" y="230.0521"/>
     <use style="fill:#2ca02c;fill-opacity:0.6;stroke:#2ca02c;stroke-opacity:0.6;" x="375.177344" xlink:href="#md9b7936daf" y="204.275"/>
     <use style="fill:#2ca02c;fill-opacity:0.6;stroke:#2ca02c;stroke-opacity:0.6;" x="399.764062" xlink:href="#md9b7936daf" y="152.5152"/>
     <use style="fill:#2ca02c;fill-opacity:0.6;stroke:#2ca02c;stroke-opacity:0.6;" x="424.350781" xlink:href="#md9b7936daf" y="284.5361"/>
     <use style="fill:#2ca02c;fill-opacity:0.6;stroke:#2ca02c;stroke-opacity:0.6;" x="448.9375" xlink:href="#md9b7936daf" y="283.3282"/>
     <use style="fill:#2ca02c;fill-opacity:0.6;stroke:#2ca02c;stroke-opacity:0.6;" x="473.524219" xlink:href="#md9b7936daf" y="228.3559"/>
     <use style="fill:#2ca02c;fill-opacity:0.6;stroke:#2ca02c;stroke-opacity:0.6;" x="498.110937" xlink:href="#md9b7936daf" y="250.7663"/>
     <use style="fill:#2ca02c;fill-opacity:0.6;stroke:#2ca02c;stroke-opacity:0.6;" x="522.697656" xlink:href="#md9b7936daf" y="233.8043"/>
     <use style="fill:#2ca02c;fill-opacity:0.6;stroke:#2ca02c;stroke-opacity:0.6;" x="547.284375" xlink:href="#md9b7936daf" y="243.1077"/>
     <use style="fill:#2ca02c;fill-opacity:0.6;stroke:#2ca02c;stroke-opacity:0.6;" x="571.871094" xlink:href="#md9b7936daf" y="182.2244"/>
     <use style="fill:#2ca02c;fill-opacity:0.6;stroke:#2ca02c;stroke-opacity:0.6;" x="596.457812" xlink:href="#md9b7936daf" y="291.2695"/>
     <use style="fill:#2ca02c;fill-opacity:0.6;stroke:#2ca02c;stroke-opacity:0.6;" x="621.044531" xlink:href="#md9b7936daf" y="280.8353"/>
     <use style="fill:#2ca02c;fill-opacity:0.6;stroke:#2ca02c;stroke-opacity:0.6;" x="645.63125" xlink:href="#md9b7936daf" y="213.6041"/>
     <use style="fill:#2ca02c;fill-opacity:0.6;stroke:#2ca02c;stroke-opacity:0.6;" x="670.217969" xlink:href="#md9b7936daf" y="234.6524"/>
     <use style="fill:#2ca02c;fill-opacity:0.6;stroke:#2ca02c;stroke-opacity:0.6;" x="694.804687" xlink:href="#md9b7936daf" y="214.9405"/>
     <use style="fill:#2ca02c;fill-opacity:0.6;stroke:#2ca02c;stroke-opacity:0.6;" x="719.391406" xlink:href="#md9b7936daf" y="193.8408"/>
     <use style="fill:#2ca02c;fill-opacity:0.6;stroke:#2ca02c;stroke-opacity:0.6;" x="743.978125" xlink:href="#md9b7936daf" y="158.6061"/>
     <use style="fill:#2ca02c;fill-opacity:0.6;stroke:#2ca02c;stroke-opacity:0.6;" x="768.564844" xlink:href="#md9b7936daf" y="273.5622"/>
     <use style="fill:#2ca02c;fill-opacity:0.6;stroke:#2ca02c;stroke-opacity:0.6;" x="793.151562" xlink:href="#md9b7936daf" y="277.1859"/>
     <use style="fill:#2ca02c;fill-opacity:0.6;stroke:#2ca02c;stroke-opacity:0.6;" x="817.738281" xlink:href="#md9b7936daf" y="179.8343"/>
    </g>
   </g>
   <g id="line2d_57">
    <path clip-path="url(#pb447c8bdda)" d="M 80.136719 202.7844 
L 104.723438 254.64186 
L 129.310156 259.00572 
L 153.896875 251.09526 
L 178.483594 223.20048 
L 203.070312 224.45464 
L 227.657031 226.25878 
L 252.24375 190.67456 
L 276.830469 277.07282 
L 301.417187 259.5814 
L 326.003906 228.62832 
L 350.590625 249.87194 
L 375.177344 225.43638 
L 399.764062 229.49698 
L 424.350781 204.08482 
L 448.9375 253.70124 
L 473.524219 270.31886 
L 498.110937 235.40798 
L 522.697656 249.25 
L 547.284375 237.12474 
L 571.871094 216.95024 
L 596.457812 192.02124 
L 621.044531 255.69556 
L 645.63125 265.50782 
L 670.217969 235.5776 
L 694.804687 240.62508 
L 719.391406 233.79916 
L 743.978125 203.8638 
L 768.564844 192.82822 
L 793.151562 266.65404 
L 817.738281 248.83366 
" style="fill:none;stroke:#a52a2a;stroke-linecap:square;stroke-width:3;"/>
    <defs>
     <path d="M -3 3 
L 3 3 
L 3 -3 
L -3 -3 
z
" id="mf362581b5c" style="stroke:#a52a2a;stroke-linejoin:miter;"/>
    </defs>
    <g clip-path="url(#pb447c8bdda)">
     <use style="fill:#a52a2a;stroke:#a52a2a;stroke-linejoin:miter;" x="80.136719" xlink:href="#mf362581b5c" y="202.7844"/>
     <use style="fill:#a52a2a;stroke:#a52a2a;stroke-linejoin:miter;" x="104.723438" xlink:href="#mf362581b5c" y="254.64186"/>
     <use style="fill:#a52a2a;stroke:#a52a2a;stroke-linejoin:miter;" x="129.310156" xlink:href="#mf362581b5c" y="259.00572"/>
     <use style="fill:#a52a2a;stroke:#a52a2a;stroke-linejoin:miter;" x="153.896875" xlink:href="#mf362581b5c" y="251.09526"/>
     <use style="fill:#a52a2a;stroke:#a52a2a;stroke-linejoin:miter;" x="178.483594" xlink:href="#mf362581b5c" y="223.20048"/>
     <use style="fill:#a52a2a;stroke:#a52a2a;stroke-linejoin:miter;" x="203.070312" xlink:href="#mf362581b5c" y="224.45464"/>
     <use style="fill:#a52a2a;stroke:#a52a2a;stroke-linejoin:miter;" x="227.657031" xlink:href="#mf362581b5c" y="226.25878"/>
     <use style="fill:#a52a2a;stroke:#a52a2a;stroke-linejoin:miter;" x="252.24375" xlink:href="#mf362581b5c" y="190.67456"/>
     <use style="fill:#a52a2a;stroke:#a52a2a;stroke-linejoin:miter;" x="276.830469" xlink:href="#mf362581b5c" y="277.07282"/>
     <use style="fill:#a52a2a;stroke:#a52a2a;stroke-linejoin:miter;" x="301.417187" xlink:href="#mf362581b5c" y="259.5814"/>
     <use style="fill:#a52a2a;stroke:#a52a2a;stroke-linejoin:miter;" x="326.003906" xlink:href="#mf362581b5c" y="228.62832"/>
     <use style="fill:#a52a2a;stroke:#a52a2a;stroke-linejoin:miter;" x="350.590625" xlink:href="#mf362581b5c" y="249.87194"/>
     <use style="fill:#a52a2a;stroke:#a52a2a;stroke-linejoin:miter;" x="375.177344" xlink:href="#mf362581b5c" y="225.43638"/>
     <use style="fill:#a52a2a;stroke:#a52a2a;stroke-linejoin:miter;" x="399.764062" xlink:href="#mf362581b5c" y="229.49698"/>
     <use style="fill:#a52a2a;stroke:#a52a2a;stroke-linejoin:miter;" x="424.350781" xlink:href="#mf362581b5c" y="204.08482"/>
     <use style="fill:#a52a2a;stroke:#a52a2a;stroke-linejoin:miter;" x="448.9375" xlink:href="#mf362581b5c" y="253.70124"/>
     <use style="fill:#a52a2a;stroke:#a52a2a;stroke-linejoin:miter;" x="473.524219" xlink:href="#mf362581b5c" y="270.31886"/>
     <use style="fill:#a52a2a;stroke:#a52a2a;stroke-linejoin:miter;" x="498.110937" xlink:href="#mf362581b5c" y="235.40798"/>
     <use style="fill:#a52a2a;stroke:#a52a2a;stroke-linejoin:miter;" x="522.697656" xlink:href="#mf362581b5c" y="249.25"/>
     <use style="fill:#a52a2a;stroke:#a52a2a;stroke-linejoin:miter;" x="547.284375" xlink:href="#mf362581b5c" y="237.12474"/>
     <use style="fill:#a52a2a;stroke:#a52a2a;stroke-linejoin:miter;" x="571.871094" xlink:href="#mf362581b5c" y="216.95024"/>
     <use style="fill:#a52a2a;stroke:#a52a2a;stroke-linejoin:miter;" x="596.457812" xlink:href="#mf362581b5c" y="192.02124"/>
     <use style="fill:#a52a2a;stroke:#a52a2a;stroke-linejoin:miter;" x="621.044531" xlink:href="#mf362581b5c" y="255.69556"/>
     <use style="fill:#a52a2a;stroke:#a52a2a;stroke-linejoin:miter;" x="645.63125" xlink:href="#mf362581b5c" y="265.50782"/>
     <use style="fill:#a52a2a;stroke:#a52a2a;stroke-linejoin:miter;" x="670.217969" xlink:href="#mf362581b5c" y="235.5776"/>
     <use style="fill:#a52a2a;stroke:#a52a2a;stroke-linejoin:miter;" x="694.804687" xlink:href="#mf362581b5c" y="240.62508"/>
     <use style="fill:#a52a2a;stroke:#a52a2a;stroke-linejoin:miter;" x="719.391406" xlink:href="#mf362581b5c" y="233.79916"/>
     <use style="fill:#a52a2a;stroke:#a52a2a;stroke-linejoin:miter;" x="743.978125" xlink:href="#mf362581b5c" y="203.8638"/>
     <use style="fill:#a52a2a;stroke:#a52a2a;stroke-linejoin:miter;" x="768.564844" xlink:href="#mf362581b5c" y="192.82822"/>
     <use style="fill:#a52a2a;stroke:#a52a2a;stroke-linejoin:miter;" x="793.151562" xlink:href="#mf362581b5c" y="266.65404"/>
     <use style="fill:#a52a2a;stroke:#a52a2a;stroke-linejoin:miter;" x="817.738281" xlink:href="#mf362581b5c" y="248.83366"/>
    </g>
   </g>
   <g id="patch_3">
    <path d="M 55.55 339.2 
L 55.55 30.8 
" style="fill:none;stroke:#ffffff;stroke-linecap:square;stroke-linejoin:miter;"/>
   </g>
   <g id="patch_4">
    <path d="M 842.325 339.2 
L 842.325 30.8 
" style="fill:none;stroke:#ffffff;stroke-linecap:square;stroke-linejoin:miter;"/>
   </g>
   <g id="patch_5">
    <path d="M 55.55 339.2 
L 842.325 339.2 
" style="fill:none;stroke:#ffffff;stroke-linecap:square;stroke-linejoin:miter;"/>
   </g>
   <g id="patch_6">
    <path d="M 55.55 30.8 
L 842.325 30.8 
" style="fill:none;stroke:#ffffff;stroke-linecap:square;stroke-linejoin:miter;"/>
   </g>
   <g id="text_14">
    <!-- Fri -->
    <defs>
     <path d="M 41.109375 46.296875 
Q 39.59375 47.171875 37.8125 47.578125 
Q 36.03125 48 33.890625 48 
Q 26.265625 48 22.1875 43.046875 
Q 18.109375 38.09375 18.109375 28.8125 
L 18.109375 0 
L 9.078125 0 
L 9.078125 54.6875 
L 18.109375 54.6875 
L 18.109375 46.1875 
Q 20.953125 51.171875 25.484375 53.578125 
Q 30.03125 56 36.53125 56 
Q 37.453125 56 38.578125 55.875 
Q 39.703125 55.765625 41.0625 55.515625 
z
" id="DejaVuSans-114"/>
     <path d="M 9.421875 54.6875 
L 18.40625 54.6875 
L 18.40625 0 
L 9.421875 0 
z
M 9.421875 75.984375 
L 18.40625 75.984375 
L 18.40625 64.59375 
L 9.421875 64.59375 
z
" id="DejaVuSans-105"/>
    </defs>
    <g style="fill:#a52a2a;" transform="translate(88.400546 191.255422)rotate(-65)scale(0.12 -0.12)">
     <use xlink:href="#DejaVuSans-70"/>
     <use x="57.410156" xlink:href="#DejaVuSans-114"/>
     <use x="98.523438" xlink:href="#DejaVuSans-105"/>
    </g>
   </g>
   <g id="text_15">
    <!-- Sat -->
    <defs>
     <path d="M 53.515625 70.515625 
L 53.515625 60.890625 
Q 47.90625 63.578125 42.921875 64.890625 
Q 37.9375 66.21875 33.296875 66.21875 
Q 25.25 66.21875 20.875 63.09375 
Q 16.5 59.96875 16.5 54.203125 
Q 16.5 49.359375 19.40625 46.890625 
Q 22.3125 44.4375 30.421875 42.921875 
L 36.375 41.703125 
Q 47.40625 39.59375 52.65625 34.296875 
Q 57.90625 29 57.90625 20.125 
Q 57.90625 9.515625 50.796875 4.046875 
Q 43.703125 -1.421875 29.984375 -1.421875 
Q 24.8125 -1.421875 18.96875 -0.25 
Q 13.140625 0.921875 6.890625 3.21875 
L 6.890625 13.375 
Q 12.890625 10.015625 18.65625 8.296875 
Q 24.421875 6.59375 29.984375 6.59375 
Q 38.421875 6.59375 43.015625 9.90625 
Q 47.609375 13.234375 47.609375 19.390625 
Q 47.609375 24.75 44.3125 27.78125 
Q 41.015625 30.8125 33.5 32.328125 
L 27.484375 33.5 
Q 16.453125 35.6875 11.515625 40.375 
Q 6.59375 45.0625 6.59375 53.421875 
Q 6.59375 63.09375 13.40625 68.65625 
Q 20.21875 74.21875 32.171875 74.21875 
Q 37.3125 74.21875 42.625 73.28125 
Q 47.953125 72.359375 53.515625 70.515625 
z
" id="DejaVuSans-83"/>
    </defs>
    <g style="fill:#a52a2a;" transform="translate(99.146091 282.20996)rotate(-65)scale(0.12 -0.12)">
     <use xlink:href="#DejaVuSans-83"/>
     <use x="63.476562" xlink:href="#DejaVuSans-97"/>
     <use x="124.755859" xlink:href="#DejaVuSans-116"/>
    </g>
   </g>
   <g id="text_16">
    <!-- Sun -->
    <defs>
     <path d="M 8.5 21.578125 
L 8.5 54.6875 
L 17.484375 54.6875 
L 17.484375 21.921875 
Q 17.484375 14.15625 20.5 10.265625 
Q 23.53125 6.390625 29.59375 6.390625 
Q 36.859375 6.390625 41.078125 11.03125 
Q 45.3125 15.671875 45.3125 23.6875 
L 45.3125 54.6875 
L 54.296875 54.6875 
L 54.296875 0 
L 45.3125 0 
L 45.3125 8.40625 
Q 42.046875 3.421875 37.71875 1 
Q 33.40625 -1.421875 27.6875 -1.421875 
Q 18.265625 -1.421875 13.375 4.4375 
Q 8.5 10.296875 8.5 21.578125 
z
M 31.109375 56 
z
" id="DejaVuSans-117"/>
    </defs>
    <g style="fill:#a52a2a;" transform="translate(122.400769 289.430389)rotate(-65)scale(0.12 -0.12)">
     <use xlink:href="#DejaVuSans-83"/>
     <use x="63.476562" xlink:href="#DejaVuSans-117"/>
     <use x="126.855469" xlink:href="#DejaVuSans-110"/>
    </g>
   </g>
   <g id="text_17">
    <!-- Mon -->
    <defs>
     <path d="M 9.8125 72.90625 
L 24.515625 72.90625 
L 43.109375 23.296875 
L 61.8125 72.90625 
L 76.515625 72.90625 
L 76.515625 0 
L 66.890625 0 
L 66.890625 64.015625 
L 48.09375 14.015625 
L 38.1875 14.015625 
L 19.390625 64.015625 
L 19.390625 0 
L 9.8125 0 
z
" id="DejaVuSans-77"/>
     <path d="M 30.609375 48.390625 
Q 23.390625 48.390625 19.1875 42.75 
Q 14.984375 37.109375 14.984375 27.296875 
Q 14.984375 17.484375 19.15625 11.84375 
Q 23.34375 6.203125 30.609375 6.203125 
Q 37.796875 6.203125 41.984375 11.859375 
Q 46.1875 17.53125 46.1875 27.296875 
Q 46.1875 37.015625 41.984375 42.703125 
Q 37.796875 48.390625 30.609375 48.390625 
z
M 30.609375 56 
Q 42.328125 56 49.015625 48.375 
Q 55.71875 40.765625 55.71875 27.296875 
Q 55.71875 13.875 49.015625 6.21875 
Q 42.328125 -1.421875 30.609375 -1.421875 
Q 18.84375 -1.421875 12.171875 6.21875 
Q 5.515625 13.875 5.515625 27.296875 
Q 5.515625 40.765625 12.171875 48.375 
Q 18.84375 56 30.609375 56 
z
" id="DejaVuSans-111"/>
    </defs>
    <g style="fill:#a52a2a;" transform="translate(145.9423 283.761341)rotate(-65)scale(0.12 -0.12)">
     <use xlink:href="#DejaVuSans-77"/>
     <use x="86.279297" xlink:href="#DejaVuSans-111"/>
     <use x="147.460938" xlink:href="#DejaVuSans-110"/>
    </g>
   </g>
   <g id="text_18">
    <!-- Tue -->
    <defs>
     <path d="M -0.296875 72.90625 
L 61.375 72.90625 
L 61.375 64.59375 
L 35.5 64.59375 
L 35.5 0 
L 25.59375 0 
L 25.59375 64.59375 
L -0.296875 64.59375 
z
" id="DejaVuSans-84"/>
    </defs>
    <g style="fill:#a52a2a;" transform="translate(171.801628 253.137442)rotate(-65)scale(0.12 -0.12)">
     <use xlink:href="#DejaVuSans-84"/>
     <use x="60.849609" xlink:href="#DejaVuSans-117"/>
     <use x="124.228516" xlink:href="#DejaVuSans-101"/>
    </g>
   </g>
   <g id="text_19">
    <!-- Wed -->
    <defs>
     <path d="M 3.328125 72.90625 
L 13.28125 72.90625 
L 28.609375 11.28125 
L 43.890625 72.90625 
L 54.984375 72.90625 
L 70.3125 11.28125 
L 85.59375 72.90625 
L 95.609375 72.90625 
L 77.296875 0 
L 64.890625 0 
L 49.515625 63.28125 
L 33.984375 0 
L 21.578125 0 
z
" id="DejaVuSans-87"/>
     <path d="M 45.40625 46.390625 
L 45.40625 75.984375 
L 54.390625 75.984375 
L 54.390625 0 
L 45.40625 0 
L 45.40625 8.203125 
Q 42.578125 3.328125 38.25 0.953125 
Q 33.9375 -1.421875 27.875 -1.421875 
Q 17.96875 -1.421875 11.734375 6.484375 
Q 5.515625 14.40625 5.515625 27.296875 
Q 5.515625 40.1875 11.734375 48.09375 
Q 17.96875 56 27.875 56 
Q 33.9375 56 38.25 53.625 
Q 42.578125 51.265625 45.40625 46.390625 
z
M 14.796875 27.296875 
Q 14.796875 17.390625 18.875 11.75 
Q 22.953125 6.109375 30.078125 6.109375 
Q 37.203125 6.109375 41.296875 11.75 
Q 45.40625 17.390625 45.40625 27.296875 
Q 45.40625 37.203125 41.296875 42.84375 
Q 37.203125 48.484375 30.078125 48.484375 
Q 22.953125 48.484375 18.875 42.84375 
Q 14.796875 37.203125 14.796875 27.296875 
z
" id="DejaVuSans-100"/>
    </defs>
    <g style="fill:#a52a2a;" transform="translate(194.458038 258.531163)rotate(-65)scale(0.12 -0.12)">
     <use xlink:href="#DejaVuSans-87"/>
     <use x="98.798828" xlink:href="#DejaVuSans-101"/>
     <use x="160.322266" xlink:href="#DejaVuSans-100"/>
    </g>
   </g>
   <g id="text_20">
    <!-- Fri -->
    <g style="fill:#a52a2a;" transform="translate(260.507578 179.145582)rotate(-65)scale(0.12 -0.12)">
     <use xlink:href="#DejaVuSans-70"/>
     <use x="57.410156" xlink:href="#DejaVuSans-114"/>
     <use x="98.523438" xlink:href="#DejaVuSans-105"/>
    </g>
   </g>
   <g id="text_21">
    <!-- Sat -->
    <g style="fill:#a52a2a;" transform="translate(271.253122 304.64092)rotate(-65)scale(0.12 -0.12)">
     <use xlink:href="#DejaVuSans-83"/>
     <use x="63.476562" xlink:href="#DejaVuSans-97"/>
     <use x="124.755859" xlink:href="#DejaVuSans-116"/>
    </g>
   </g>
   <g id="text_22">
    <!-- Sun -->
    <g style="fill:#a52a2a;" transform="translate(294.507801 290.006069)rotate(-65)scale(0.12 -0.12)">
     <use xlink:href="#DejaVuSans-83"/>
     <use x="63.476562" xlink:href="#DejaVuSans-117"/>
     <use x="126.855469" xlink:href="#DejaVuSans-110"/>
    </g>
   </g>
   <g id="text_23">
    <!-- Mon -->
    <g style="fill:#a52a2a;" transform="translate(318.049332 261.294401)rotate(-65)scale(0.12 -0.12)">
     <use xlink:href="#DejaVuSans-77"/>
     <use x="86.279297" xlink:href="#DejaVuSans-111"/>
     <use x="147.460938" xlink:href="#DejaVuSans-110"/>
    </g>
   </g>
   <g id="text_24">
    <!-- Tue -->
    <g style="fill:#a52a2a;" transform="translate(343.90866 279.808902)rotate(-65)scale(0.12 -0.12)">
     <use xlink:href="#DejaVuSans-84"/>
     <use x="60.849609" xlink:href="#DejaVuSans-117"/>
     <use x="124.228516" xlink:href="#DejaVuSans-101"/>
    </g>
   </g>
   <g id="text_25">
    <!-- Wed -->
    <g style="fill:#a52a2a;" transform="translate(366.565069 259.512903)rotate(-65)scale(0.12 -0.12)">
     <use xlink:href="#DejaVuSans-87"/>
     <use x="98.798828" xlink:href="#DejaVuSans-101"/>
     <use x="160.322266" xlink:href="#DejaVuSans-100"/>
    </g>
   </g>
   <g id="text_26">
    <!-- Fri -->
    <g style="fill:#a52a2a;" transform="translate(432.614609 192.555842)rotate(-65)scale(0.12 -0.12)">
     <use xlink:href="#DejaVuSans-70"/>
     <use x="57.410156" xlink:href="#DejaVuSans-114"/>
     <use x="98.523438" xlink:href="#DejaVuSans-105"/>
    </g>
   </g>
   <g id="text_27">
    <!-- Sat -->
    <g style="fill:#a52a2a;" transform="translate(443.360153 281.26934)rotate(-65)scale(0.12 -0.12)">
     <use xlink:href="#DejaVuSans-83"/>
     <use x="63.476562" xlink:href="#DejaVuSans-97"/>
     <use x="124.755859" xlink:href="#DejaVuSans-116"/>
    </g>
   </g>
   <g id="text_28">
    <!-- Sun -->
    <g style="fill:#a52a2a;" transform="translate(466.614832 300.743529)rotate(-65)scale(0.12 -0.12)">
     <use xlink:href="#DejaVuSans-83"/>
     <use x="63.476562" xlink:href="#DejaVuSans-117"/>
     <use x="126.855469" xlink:href="#DejaVuSans-110"/>
    </g>
   </g>
   <g id="text_29">
    <!-- Mon -->
    <g style="fill:#a52a2a;" transform="translate(490.156363 268.074061)rotate(-65)scale(0.12 -0.12)">
     <use xlink:href="#DejaVuSans-77"/>
     <use x="86.279297" xlink:href="#DejaVuSans-111"/>
     <use x="147.460938" xlink:href="#DejaVuSans-110"/>
    </g>
   </g>
   <g id="text_30">
    <!-- Tue -->
    <g style="fill:#a52a2a;" transform="translate(516.015691 279.186962)rotate(-65)scale(0.12 -0.12)">
     <use xlink:href="#DejaVuSans-84"/>
     <use x="60.849609" xlink:href="#DejaVuSans-117"/>
     <use x="124.228516" xlink:href="#DejaVuSans-101"/>
    </g>
   </g>
   <g id="text_31">
    <!-- Wed -->
    <g style="fill:#a52a2a;" transform="translate(538.672101 271.201263)rotate(-65)scale(0.12 -0.12)">
     <use xlink:href="#DejaVuSans-87"/>
     <use x="98.798828" xlink:href="#DejaVuSans-101"/>
     <use x="160.322266" xlink:href="#DejaVuSans-100"/>
    </g>
   </g>
   <g id="text_32">
    <!-- Fri -->
    <g style="fill:#a52a2a;" transform="translate(604.72164 180.492262)rotate(-65)scale(0.12 -0.12)">
     <use xlink:href="#DejaVuSans-70"/>
     <use x="57.410156" xlink:href="#DejaVuSans-114"/>
     <use x="98.523438" xlink:href="#DejaVuSans-105"/>
    </g>
   </g>
   <g id="text_33">
    <!-- Sat -->
    <g style="fill:#a52a2a;" transform="translate(615.467184 283.26366)rotate(-65)scale(0.12 -0.12)">
     <use xlink:href="#DejaVuSans-83"/>
     <use x="63.476562" xlink:href="#DejaVuSans-97"/>
     <use x="124.755859" xlink:href="#DejaVuSans-116"/>
    </g>
   </g>
   <g id="text_34">
    <!-- Sun -->
    <g style="fill:#a52a2a;" transform="translate(638.721863 295.932489)rotate(-65)scale(0.12 -0.12)">
     <use xlink:href="#DejaVuSans-83"/>
     <use x="63.476562" xlink:href="#DejaVuSans-117"/>
     <use x="126.855469" xlink:href="#DejaVuSans-110"/>
    </g>
   </g>
   <g id="text_35">
    <!-- Mon -->
    <g style="fill:#a52a2a;" transform="translate(662.263394 268.243681)rotate(-65)scale(0.12 -0.12)">
     <use xlink:href="#DejaVuSans-77"/>
     <use x="86.279297" xlink:href="#DejaVuSans-111"/>
     <use x="147.460938" xlink:href="#DejaVuSans-110"/>
    </g>
   </g>
   <g id="text_36">
    <!-- Tue -->
    <g style="fill:#a52a2a;" transform="translate(688.122722 270.562042)rotate(-65)scale(0.12 -0.12)">
     <use xlink:href="#DejaVuSans-84"/>
     <use x="60.849609" xlink:href="#DejaVuSans-117"/>
     <use x="124.228516" xlink:href="#DejaVuSans-101"/>
    </g>
   </g>
   <g id="text_37">
    <!-- Wed -->
    <g style="fill:#a52a2a;" transform="translate(710.779132 267.875683)rotate(-65)scale(0.12 -0.12)">
     <use xlink:href="#DejaVuSans-87"/>
     <use x="98.798828" xlink:href="#DejaVuSans-101"/>
     <use x="160.322266" xlink:href="#DejaVuSans-100"/>
    </g>
   </g>
   <g id="text_38">
    <!-- Fri -->
    <g style="fill:#a52a2a;" transform="translate(776.828671 181.299242)rotate(-65)scale(0.12 -0.12)">
     <use xlink:href="#DejaVuSans-70"/>
     <use x="57.410156" xlink:href="#DejaVuSans-114"/>
     <use x="98.523438" xlink:href="#DejaVuSans-105"/>
    </g>
   </g>
   <g id="text_39">
    <!-- Sat -->
    <g style="fill:#a52a2a;" transform="translate(787.574216 294.22214)rotate(-65)scale(0.12 -0.12)">
     <use xlink:href="#DejaVuSans-83"/>
     <use x="63.476562" xlink:href="#DejaVuSans-97"/>
     <use x="124.755859" xlink:href="#DejaVuSans-116"/>
    </g>
   </g>
   <g id="text_40">
    <!-- Sun -->
    <g style="fill:#a52a2a;" transform="translate(810.828894 279.258329)rotate(-65)scale(0.12 -0.12)">
     <use xlink:href="#DejaVuSans-83"/>
     <use x="63.476562" xlink:href="#DejaVuSans-117"/>
     <use x="126.855469" xlink:href="#DejaVuSans-110"/>
    </g>
   </g>
   <g id="text_41">
    <!-- Thur -->
    <defs>
     <path d="M 54.890625 33.015625 
L 54.890625 0 
L 45.90625 0 
L 45.90625 32.71875 
Q 45.90625 40.484375 42.875 44.328125 
Q 39.84375 48.1875 33.796875 48.1875 
Q 26.515625 48.1875 22.3125 43.546875 
Q 18.109375 38.921875 18.109375 30.90625 
L 18.109375 0 
L 9.078125 0 
L 9.078125 75.984375 
L 18.109375 75.984375 
L 18.109375 46.1875 
Q 21.34375 51.125 25.703125 53.5625 
Q 30.078125 56 35.796875 56 
Q 45.21875 56 50.046875 50.171875 
Q 54.890625 44.34375 54.890625 33.015625 
z
" id="DejaVuSans-104"/>
    </defs>
    <g style="fill:#2ca02c;" transform="translate(230.920859 159.305202)rotate(-65)scale(0.12 -0.12)">
     <use xlink:href="#DejaVuSans-84"/>
     <use x="61.083984" xlink:href="#DejaVuSans-104"/>
     <use x="124.462891" xlink:href="#DejaVuSans-117"/>
     <use x="187.841797" xlink:href="#DejaVuSans-114"/>
    </g>
   </g>
   <g id="text_42">
    <!-- Thur -->
    <g style="fill:#2ca02c;" transform="translate(403.02789 147.149102)rotate(-65)scale(0.12 -0.12)">
     <use xlink:href="#DejaVuSans-84"/>
     <use x="61.083984" xlink:href="#DejaVuSans-104"/>
     <use x="124.462891" xlink:href="#DejaVuSans-117"/>
     <use x="187.841797" xlink:href="#DejaVuSans-114"/>
    </g>
   </g>
   <g id="text_43">
    <!-- Thur -->
    <g style="fill:#2ca02c;" transform="translate(575.134921 176.858302)rotate(-65)scale(0.12 -0.12)">
     <use xlink:href="#DejaVuSans-84"/>
     <use x="61.083984" xlink:href="#DejaVuSans-104"/>
     <use x="124.462891" xlink:href="#DejaVuSans-117"/>
     <use x="187.841797" xlink:href="#DejaVuSans-114"/>
    </g>
   </g>
   <g id="text_44">
    <!-- Thur -->
    <g style="fill:#2ca02c;" transform="translate(747.241953 153.240002)rotate(-65)scale(0.12 -0.12)">
     <use xlink:href="#DejaVuSans-84"/>
     <use x="61.083984" xlink:href="#DejaVuSans-104"/>
     <use x="124.462891" xlink:href="#DejaVuSans-117"/>
     <use x="187.841797" xlink:href="#DejaVuSans-114"/>
    </g>
   </g>
   <g id="text_45">
    <!-- Fish Fillet Sales in January 2016 -->
    <defs>
     <path d="M 44.28125 53.078125 
L 44.28125 44.578125 
Q 40.484375 46.53125 36.375 47.5 
Q 32.28125 48.484375 27.875 48.484375 
Q 21.1875 48.484375 17.84375 46.4375 
Q 14.5 44.390625 14.5 40.28125 
Q 14.5 37.15625 16.890625 35.375 
Q 19.28125 33.59375 26.515625 31.984375 
L 29.59375 31.296875 
Q 39.15625 29.25 43.1875 25.515625 
Q 47.21875 21.78125 47.21875 15.09375 
Q 47.21875 7.46875 41.1875 3.015625 
Q 35.15625 -1.421875 24.609375 -1.421875 
Q 20.21875 -1.421875 15.453125 -0.5625 
Q 10.6875 0.296875 5.421875 2 
L 5.421875 11.28125 
Q 10.40625 8.6875 15.234375 7.390625 
Q 20.0625 6.109375 24.8125 6.109375 
Q 31.15625 6.109375 34.5625 8.28125 
Q 37.984375 10.453125 37.984375 14.40625 
Q 37.984375 18.0625 35.515625 20.015625 
Q 33.0625 21.96875 24.703125 23.78125 
L 21.578125 24.515625 
Q 13.234375 26.265625 9.515625 29.90625 
Q 5.8125 33.546875 5.8125 39.890625 
Q 5.8125 47.609375 11.28125 51.796875 
Q 16.75 56 26.8125 56 
Q 31.78125 56 36.171875 55.265625 
Q 40.578125 54.546875 44.28125 53.078125 
z
" id="DejaVuSans-115"/>
     <path id="DejaVuSans-32"/>
     <path d="M 9.421875 75.984375 
L 18.40625 75.984375 
L 18.40625 0 
L 9.421875 0 
z
" id="DejaVuSans-108"/>
     <path d="M 32.171875 -5.078125 
Q 28.375 -14.84375 24.75 -17.8125 
Q 21.140625 -20.796875 15.09375 -20.796875 
L 7.90625 -20.796875 
L 7.90625 -13.28125 
L 13.1875 -13.28125 
Q 16.890625 -13.28125 18.9375 -11.515625 
Q 21 -9.765625 23.484375 -3.21875 
L 25.09375 0.875 
L 2.984375 54.6875 
L 12.5 54.6875 
L 29.59375 11.921875 
L 46.6875 54.6875 
L 56.203125 54.6875 
z
" id="DejaVuSans-121"/>
    </defs>
    <g transform="translate(305.658906 24.8)scale(0.18 -0.18)">
     <use xlink:href="#DejaVuSans-70"/>
     <use x="57.410156" xlink:href="#DejaVuSans-105"/>
     <use x="85.193359" xlink:href="#DejaVuSans-115"/>
     <use x="137.292969" xlink:href="#DejaVuSans-104"/>
     <use x="200.671875" xlink:href="#DejaVuSans-32"/>
     <use x="232.458984" xlink:href="#DejaVuSans-70"/>
     <use x="289.869141" xlink:href="#DejaVuSans-105"/>
     <use x="317.652344" xlink:href="#DejaVuSans-108"/>
     <use x="345.435547" xlink:href="#DejaVuSans-108"/>
     <use x="373.21875" xlink:href="#DejaVuSans-101"/>
     <use x="434.742188" xlink:href="#DejaVuSans-116"/>
     <use x="473.951172" xlink:href="#DejaVuSans-32"/>
     <use x="505.738281" xlink:href="#DejaVuSans-83"/>
     <use x="569.214844" xlink:href="#DejaVuSans-97"/>
     <use x="630.494141" xlink:href="#DejaVuSans-108"/>
     <use x="658.277344" xlink:href="#DejaVuSans-101"/>
     <use x="719.800781" xlink:href="#DejaVuSans-115"/>
     <use x="771.900391" xlink:href="#DejaVuSans-32"/>
     <use x="803.6875" xlink:href="#DejaVuSans-105"/>
     <use x="831.470703" xlink:href="#DejaVuSans-110"/>
     <use x="894.849609" xlink:href="#DejaVuSans-32"/>
     <use x="926.636719" xlink:href="#DejaVuSans-74"/>
     <use x="956.128906" xlink:href="#DejaVuSans-97"/>
     <use x="1017.408203" xlink:href="#DejaVuSans-110"/>
     <use x="1080.787109" xlink:href="#DejaVuSans-117"/>
     <use x="1144.166016" xlink:href="#DejaVuSans-97"/>
     <use x="1205.445312" xlink:href="#DejaVuSans-114"/>
     <use x="1246.558594" xlink:href="#DejaVuSans-121"/>
     <use x="1305.738281" xlink:href="#DejaVuSans-32"/>
     <use x="1337.525391" xlink:href="#DejaVuSans-50"/>
     <use x="1401.148438" xlink:href="#DejaVuSans-48"/>
     <use x="1464.771484" xlink:href="#DejaVuSans-49"/>
     <use x="1528.394531" xlink:href="#DejaVuSans-54"/>
    </g>
   </g>
   <g id="legend_1">
    <g id="patch_7">
     <path d="M 62.55 126.86875 
L 196.596875 126.86875 
Q 198.596875 126.86875 198.596875 124.86875 
L 198.596875 37.8 
Q 198.596875 35.8 196.596875 35.8 
L 62.55 35.8 
Q 60.55 35.8 60.55 37.8 
L 60.55 124.86875 
Q 60.55 126.86875 62.55 126.86875 
z
" style="fill:#ffc72c;opacity:0.8;stroke:#cccccc;stroke-linejoin:miter;stroke-width:0.5;"/>
    </g>
    <g id="line2d_58">
     <path d="M 64.55 43.898438 
L 84.55 43.898438 
" style="fill:none;stroke:#e24a33;stroke-linecap:square;stroke-opacity:0.3;stroke-width:1.5;"/>
    </g>
    <g id="line2d_59"/>
    <g id="text_46">
     <!-- FishFillet-SouthWest -->
     <defs>
      <path d="M 4.890625 31.390625 
L 31.203125 31.390625 
L 31.203125 23.390625 
L 4.890625 23.390625 
z
" id="DejaVuSans-45"/>
     </defs>
     <g transform="translate(92.55 47.398438)scale(0.1 -0.1)">
      <use xlink:href="#DejaVuSans-70"/>
      <use x="57.410156" xlink:href="#DejaVuSans-105"/>
      <use x="85.193359" xlink:href="#DejaVuSans-115"/>
      <use x="137.292969" xlink:href="#DejaVuSans-104"/>
      <use x="200.671875" xlink:href="#DejaVuSans-70"/>
      <use x="258.082031" xlink:href="#DejaVuSans-105"/>
      <use x="285.865234" xlink:href="#DejaVuSans-108"/>
      <use x="313.648438" xlink:href="#DejaVuSans-108"/>
      <use x="341.431641" xlink:href="#DejaVuSans-101"/>
      <use x="402.955078" xlink:href="#DejaVuSans-116"/>
      <use x="442.164062" xlink:href="#DejaVuSans-45"/>
      <use x="478.248047" xlink:href="#DejaVuSans-83"/>
      <use x="541.724609" xlink:href="#DejaVuSans-111"/>
      <use x="602.90625" xlink:href="#DejaVuSans-117"/>
      <use x="666.285156" xlink:href="#DejaVuSans-116"/>
      <use x="705.494141" xlink:href="#DejaVuSans-104"/>
      <use x="768.873047" xlink:href="#DejaVuSans-87"/>
      <use x="867.671875" xlink:href="#DejaVuSans-101"/>
      <use x="929.195312" xlink:href="#DejaVuSans-115"/>
      <use x="981.294922" xlink:href="#DejaVuSans-116"/>
     </g>
    </g>
    <g id="line2d_60">
     <path d="M 64.55 58.576563 
L 84.55 58.576563 
" style="fill:none;stroke:#348abd;stroke-linecap:square;stroke-opacity:0.3;stroke-width:1.5;"/>
    </g>
    <g id="line2d_61"/>
    <g id="text_47">
     <!-- FishFillet-NorthWest -->
     <defs>
      <path d="M 9.8125 72.90625 
L 23.09375 72.90625 
L 55.421875 11.921875 
L 55.421875 72.90625 
L 64.984375 72.90625 
L 64.984375 0 
L 51.703125 0 
L 19.390625 60.984375 
L 19.390625 0 
L 9.8125 0 
z
" id="DejaVuSans-78"/>
     </defs>
     <g transform="translate(92.55 62.076563)scale(0.1 -0.1)">
      <use xlink:href="#DejaVuSans-70"/>
      <use x="57.410156" xlink:href="#DejaVuSans-105"/>
      <use x="85.193359" xlink:href="#DejaVuSans-115"/>
      <use x="137.292969" xlink:href="#DejaVuSans-104"/>
      <use x="200.671875" xlink:href="#DejaVuSans-70"/>
      <use x="258.082031" xlink:href="#DejaVuSans-105"/>
      <use x="285.865234" xlink:href="#DejaVuSans-108"/>
      <use x="313.648438" xlink:href="#DejaVuSans-108"/>
      <use x="341.431641" xlink:href="#DejaVuSans-101"/>
      <use x="402.955078" xlink:href="#DejaVuSans-116"/>
      <use x="442.164062" xlink:href="#DejaVuSans-45"/>
      <use x="478.248047" xlink:href="#DejaVuSans-78"/>
      <use x="553.052734" xlink:href="#DejaVuSans-111"/>
      <use x="614.234375" xlink:href="#DejaVuSans-114"/>
      <use x="655.347656" xlink:href="#DejaVuSans-116"/>
      <use x="694.556641" xlink:href="#DejaVuSans-104"/>
      <use x="757.935547" xlink:href="#DejaVuSans-87"/>
      <use x="856.734375" xlink:href="#DejaVuSans-101"/>
      <use x="918.257812" xlink:href="#DejaVuSans-115"/>
      <use x="970.357422" xlink:href="#DejaVuSans-116"/>
     </g>
    </g>
    <g id="line2d_62">
     <path d="M 64.55 73.254688 
L 84.55 73.254688 
" style="fill:none;stroke:#988ed5;stroke-linecap:square;stroke-opacity:0.3;stroke-width:1.5;"/>
    </g>
    <g id="line2d_63"/>
    <g id="text_48">
     <!-- FishFillet-SouthEast -->
     <defs>
      <path d="M 9.8125 72.90625 
L 55.90625 72.90625 
L 55.90625 64.59375 
L 19.671875 64.59375 
L 19.671875 43.015625 
L 54.390625 43.015625 
L 54.390625 34.71875 
L 19.671875 34.71875 
L 19.671875 8.296875 
L 56.78125 8.296875 
L 56.78125 0 
L 9.8125 0 
z
" id="DejaVuSans-69"/>
     </defs>
     <g transform="translate(92.55 76.754688)scale(0.1 -0.1)">
      <use xlink:href="#DejaVuSans-70"/>
      <use x="57.410156" xlink:href="#DejaVuSans-105"/>
      <use x="85.193359" xlink:href="#DejaVuSans-115"/>
      <use x="137.292969" xlink:href="#DejaVuSans-104"/>
      <use x="200.671875" xlink:href="#DejaVuSans-70"/>
      <use x="258.082031" xlink:href="#DejaVuSans-105"/>
      <use x="285.865234" xlink:href="#DejaVuSans-108"/>
      <use x="313.648438" xlink:href="#DejaVuSans-108"/>
      <use x="341.431641" xlink:href="#DejaVuSans-101"/>
      <use x="402.955078" xlink:href="#DejaVuSans-116"/>
      <use x="442.164062" xlink:href="#DejaVuSans-45"/>
      <use x="478.248047" xlink:href="#DejaVuSans-83"/>
      <use x="541.724609" xlink:href="#DejaVuSans-111"/>
      <use x="602.90625" xlink:href="#DejaVuSans-117"/>
      <use x="666.285156" xlink:href="#DejaVuSans-116"/>
      <use x="705.494141" xlink:href="#DejaVuSans-104"/>
      <use x="768.873047" xlink:href="#DejaVuSans-69"/>
      <use x="832.056641" xlink:href="#DejaVuSans-97"/>
      <use x="893.335938" xlink:href="#DejaVuSans-115"/>
      <use x="945.435547" xlink:href="#DejaVuSans-116"/>
     </g>
    </g>
    <g id="line2d_64">
     <path d="M 64.55 87.932813 
L 84.55 87.932813 
" style="fill:none;stroke:#777777;stroke-linecap:square;stroke-opacity:0.3;stroke-width:1.5;"/>
    </g>
    <g id="line2d_65"/>
    <g id="text_49">
     <!-- FishFillet-Central -->
     <defs>
      <path d="M 64.40625 67.28125 
L 64.40625 56.890625 
Q 59.421875 61.53125 53.78125 63.8125 
Q 48.140625 66.109375 41.796875 66.109375 
Q 29.296875 66.109375 22.65625 58.46875 
Q 16.015625 50.828125 16.015625 36.375 
Q 16.015625 21.96875 22.65625 14.328125 
Q 29.296875 6.6875 41.796875 6.6875 
Q 48.140625 6.6875 53.78125 8.984375 
Q 59.421875 11.28125 64.40625 15.921875 
L 64.40625 5.609375 
Q 59.234375 2.09375 53.4375 0.328125 
Q 47.65625 -1.421875 41.21875 -1.421875 
Q 24.65625 -1.421875 15.125 8.703125 
Q 5.609375 18.84375 5.609375 36.375 
Q 5.609375 53.953125 15.125 64.078125 
Q 24.65625 74.21875 41.21875 74.21875 
Q 47.75 74.21875 53.53125 72.484375 
Q 59.328125 70.75 64.40625 67.28125 
z
" id="DejaVuSans-67"/>
     </defs>
     <g transform="translate(92.55 91.432813)scale(0.1 -0.1)">
      <use xlink:href="#DejaVuSans-70"/>
      <use x="57.410156" xlink:href="#DejaVuSans-105"/>
      <use x="85.193359" xlink:href="#DejaVuSans-115"/>
      <use x="137.292969" xlink:href="#DejaVuSans-104"/>
      <use x="200.671875" xlink:href="#DejaVuSans-70"/>
      <use x="258.082031" xlink:href="#DejaVuSans-105"/>
      <use x="285.865234" xlink:href="#DejaVuSans-108"/>
      <use x="313.648438" xlink:href="#DejaVuSans-108"/>
      <use x="341.431641" xlink:href="#DejaVuSans-101"/>
      <use x="402.955078" xlink:href="#DejaVuSans-116"/>
      <use x="442.164062" xlink:href="#DejaVuSans-45"/>
      <use x="478.248047" xlink:href="#DejaVuSans-67"/>
      <use x="548.072266" xlink:href="#DejaVuSans-101"/>
      <use x="609.595703" xlink:href="#DejaVuSans-110"/>
      <use x="672.974609" xlink:href="#DejaVuSans-116"/>
      <use x="712.183594" xlink:href="#DejaVuSans-114"/>
      <use x="753.296875" xlink:href="#DejaVuSans-97"/>
      <use x="814.576172" xlink:href="#DejaVuSans-108"/>
     </g>
    </g>
    <g id="line2d_66">
     <path d="M 64.55 102.610938 
L 84.55 102.610938 
" style="fill:none;stroke:#2ca02c;stroke-linecap:square;stroke-opacity:0.6;stroke-width:2;"/>
    </g>
    <g id="line2d_67">
     <g>
      <use style="fill:#2ca02c;fill-opacity:0.6;stroke:#2ca02c;stroke-opacity:0.6;" x="74.55" xlink:href="#md9b7936daf" y="102.610938"/>
     </g>
    </g>
    <g id="text_50">
     <!-- FishFillet-NorthEast -->
     <g transform="translate(92.55 106.110938)scale(0.1 -0.1)">
      <use xlink:href="#DejaVuSans-70"/>
      <use x="57.410156" xlink:href="#DejaVuSans-105"/>
      <use x="85.193359" xlink:href="#DejaVuSans-115"/>
      <use x="137.292969" xlink:href="#DejaVuSans-104"/>
      <use x="200.671875" xlink:href="#DejaVuSans-70"/>
      <use x="258.082031" xlink:href="#DejaVuSans-105"/>
      <use x="285.865234" xlink:href="#DejaVuSans-108"/>
      <use x="313.648438" xlink:href="#DejaVuSans-108"/>
      <use x="341.431641" xlink:href="#DejaVuSans-101"/>
      <use x="402.955078" xlink:href="#DejaVuSans-116"/>
      <use x="442.164062" xlink:href="#DejaVuSans-45"/>
      <use x="478.248047" xlink:href="#DejaVuSans-78"/>
      <use x="553.052734" xlink:href="#DejaVuSans-111"/>
      <use x="614.234375" xlink:href="#DejaVuSans-114"/>
      <use x="655.347656" xlink:href="#DejaVuSans-116"/>
      <use x="694.556641" xlink:href="#DejaVuSans-104"/>
      <use x="757.935547" xlink:href="#DejaVuSans-69"/>
      <use x="821.119141" xlink:href="#DejaVuSans-97"/>
      <use x="882.398438" xlink:href="#DejaVuSans-115"/>
      <use x="934.498047" xlink:href="#DejaVuSans-116"/>
     </g>
    </g>
    <g id="line2d_68">
     <path d="M 64.55 117.289063 
L 84.55 117.289063 
" style="fill:none;stroke:#a52a2a;stroke-linecap:square;stroke-width:3;"/>
    </g>
    <g id="line2d_69">
     <g>
      <use style="fill:#a52a2a;stroke:#a52a2a;stroke-linejoin:miter;" x="74.55" xlink:href="#mf362581b5c" y="117.289063"/>
     </g>
    </g>
    <g id="text_51">
     <!-- average -->
     <defs>
      <path d="M 2.984375 54.6875 
L 12.5 54.6875 
L 29.59375 8.796875 
L 46.6875 54.6875 
L 56.203125 54.6875 
L 35.6875 0 
L 23.484375 0 
z
" id="DejaVuSans-118"/>
      <path d="M 45.40625 27.984375 
Q 45.40625 37.75 41.375 43.109375 
Q 37.359375 48.484375 30.078125 48.484375 
Q 22.859375 48.484375 18.828125 43.109375 
Q 14.796875 37.75 14.796875 27.984375 
Q 14.796875 18.265625 18.828125 12.890625 
Q 22.859375 7.515625 30.078125 7.515625 
Q 37.359375 7.515625 41.375 12.890625 
Q 45.40625 18.265625 45.40625 27.984375 
z
M 54.390625 6.78125 
Q 54.390625 -7.171875 48.1875 -13.984375 
Q 42 -20.796875 29.203125 -20.796875 
Q 24.46875 -20.796875 20.265625 -20.09375 
Q 16.0625 -19.390625 12.109375 -17.921875 
L 12.109375 -9.1875 
Q 16.0625 -11.328125 19.921875 -12.34375 
Q 23.78125 -13.375 27.78125 -13.375 
Q 36.625 -13.375 41.015625 -8.765625 
Q 45.40625 -4.15625 45.40625 5.171875 
L 45.40625 9.625 
Q 42.625 4.78125 38.28125 2.390625 
Q 33.9375 0 27.875 0 
Q 17.828125 0 11.671875 7.65625 
Q 5.515625 15.328125 5.515625 27.984375 
Q 5.515625 40.671875 11.671875 48.328125 
Q 17.828125 56 27.875 56 
Q 33.9375 56 38.28125 53.609375 
Q 42.625 51.21875 45.40625 46.390625 
L 45.40625 54.6875 
L 54.390625 54.6875 
z
" id="DejaVuSans-103"/>
     </defs>
     <g transform="translate(92.55 120.789063)scale(0.1 -0.1)">
      <use xlink:href="#DejaVuSans-97"/>
      <use x="61.279297" xlink:href="#DejaVuSans-118"/>
      <use x="120.458984" xlink:href="#DejaVuSans-101"/>
      <use x="181.982422" xlink:href="#DejaVuSans-114"/>
      <use x="223.095703" xlink:href="#DejaVuSans-97"/>
      <use x="284.375" xlink:href="#DejaVuSans-103"/>
      <use x="347.851562" xlink:href="#DejaVuSans-101"/>
     </g>
    </g>
   </g>
  </g>
 </g>
 <defs>
  <clipPath id="pb447c8bdda">
   <rect height="308.4" width="786.775" x="55.55" y="30.8"/>
  </clipPath>
 </defs>
</svg>
